<svg version="1.0" xmlns="http://www.w3.org/2000/svg" width="30" height="30" viewBox="0 0 300.000000 265.000000" preserveAspectRatio="xMidYMid " class="svg" style="width: 120px; height: 120px;">
<g transform="translate(0.000000,265.000000) scale(0.100000,-0.100000)" fill="#030303" stroke="none">
<path class="node" id="node1" d="M593 2629 c-151 -58 -221 -236 -150 -381 41 -84 105 -130 210 -152
15 -4 27 -10 27 -14 0 -4 -20 -34 -43 -66 -51 -67 -67 -124 -67 -231 0 -81 13
-156 38 -224 28 -77 21 -162 -22 -271 -31 -76 -42 -123 -57 -240 -10 -80 -19
-168 -19 -197 0 -77 25 -195 55 -254 24 -46 26 -60 20 -113 -3 -33 -13 -75
-20 -93 -13 -31 -17 -33 -62 -33 -59 -1 -133 -17 -153 -34 -8 -7 -46 -16 -84
-19 -72 -7 -115 -27 -123 -57 -3 -11 -21 -22 -47 -29 -47 -12 -96 -45 -96 -66
0 -7 10 -15 22 -19 254 -70 314 -81 438 -81 193 0 277 37 349 155 17 28 33 50
37 50 3 0 29 -15 57 -34 237 -158 558 -235 922 -223 558 19 803 160 902 517
29 106 30 206 3 318 -22 93 -50 152 -114 244 -35 50 -76 127 -76 143 0 1 27 5
60 9 186 21 318 118 374 274 14 40 26 83 26 94 0 19 -4 20 -47 14 -25 -3 -61
-15 -79 -25 -23 -14 -51 -20 -92 -19 -46 1 -66 -4 -100 -26 -49 -31 -52 -31
-52 -10 0 13 -6 15 -27 9 -47 -11 -93 -37 -104 -56 -13 -26 -39 -24 -39 2 0
12 -12 44 -27 71 -30 54 -60 78 -73 57 -6 -9 -14 -2 -28 22 -27 45 -72 88 -99
95 -13 3 -32 21 -43 39 -32 52 -89 98 -105 85 -33 -27 -47 -202 -23 -284 18
-62 69 -136 134 -194 32 -29 62 -52 66 -52 19 0 5 -28 -28 -61 -50 -47 -112
-140 -142 -213 -21 -51 -26 -77 -26 -160 l-1 -98 -20 28 c-108 153 -307 216
-600 190 -104 -10 -136 0 -178 56 -48 63 -42 138 22 318 37 102 39 166 10 252
-22 67 -50 109 -118 181 -35 36 -64 54 -126 78 -92 36 -107 48 -183 148 -53
70 -55 75 -37 85 78 43 143 175 130 264 -16 107 -86 196 -183 232 -66 25 -122
25 -189 -1z" style="fill: #1d4ed8;"></path>
</g>
<g transform="translate(0.000000,265.000000) scale(0.100000,-0.100000)" fill="#A2A2A2" stroke="none">




</g>
</svg>
